<svg width="255" height="255" viewBox="0 0 255 255" fill="none" xmlns="http://www.w3.org/2000/svg">
<rect width="255" height="255" fill="#F5F5F5"/>
<g filter="url(#filter0_b_0_1)">
<rect width="255" height="255" rx="28" fill="#979797" fill-opacity="0.5"/>
</g>
<g filter="url(#filter1_b_0_1)">
<path d="M92.792 187.472C92.6213 187.557 92.4507 187.6 92.28 187.6C92.1093 187.6 91.768 187.6 91.256 187.6C90.0613 187.6 88.6533 187.387 87.032 186.96C85.496 186.619 83.96 186.149 82.424 185.552C80.9733 185.04 79.6933 184.443 78.584 183.76C77.56 183.077 76.92 182.48 76.664 181.968C76.5787 180.773 76.536 179.536 76.536 178.256C76.536 176.976 76.536 175.739 76.536 174.544C76.536 164.987 77.2187 155.003 78.584 144.592C80.0347 134.181 82.3813 122.917 85.624 110.8C85.9653 109.605 86.3067 108.112 86.648 106.32C87.0747 104.443 87.5013 102.437 87.928 100.304C85.88 101.925 83.448 104.528 80.632 108.112C77.816 111.611 74.8293 115.792 71.672 120.656C68.6 125.435 65.4853 130.725 62.328 136.528C59.256 142.245 56.44 148.091 53.88 154.064C51.32 159.952 49.1013 165.797 47.224 171.6C45.432 177.403 44.3227 182.779 43.896 187.728C39.8 186.533 36.9413 185.339 35.32 184.144C33.784 182.949 33.016 181.499 33.016 179.792C33.016 178.256 33.4853 176.08 34.424 173.264C35.3627 170.448 36.6853 167.12 38.392 163.28C40.0987 159.44 42.1893 155.173 44.664 150.48C47.1387 145.701 49.8693 140.581 52.856 135.12C56.2693 128.891 59.5973 123.045 62.84 117.584C66.168 112.123 69.4107 107.173 72.568 102.736C75.7253 98.2987 78.7973 94.4587 81.784 91.216C84.856 87.9733 87.8853 85.4987 90.872 83.792C92.0667 83.792 93.6453 84.0907 95.608 84.688C97.656 85.2853 99.6187 86.0107 101.496 86.864C103.459 87.7173 105.165 88.6133 106.616 89.552C108.152 90.4053 109.005 91.1307 109.176 91.728C107.981 94.1173 106.573 97.7013 104.952 102.48C103.331 107.259 101.667 112.677 99.96 118.736C98.3387 124.795 96.76 131.237 95.224 138.064C93.7733 144.805 92.6213 151.291 91.768 157.52C93.7307 152.827 95.992 147.963 98.552 142.928C101.197 137.808 103.971 132.773 106.872 127.824C109.773 122.789 112.717 117.925 115.704 113.232C118.776 108.539 121.763 104.272 124.664 100.432C127.565 96.5067 130.253 93.0933 132.728 90.192C135.288 87.2907 137.549 85.1573 139.512 83.792C140.707 83.792 142.285 84.0907 144.248 84.688C146.296 85.2853 148.259 86.0107 150.136 86.864C152.099 87.7173 153.805 88.6133 155.256 89.552C156.792 90.4053 157.645 91.1307 157.816 91.728C155.085 96.592 152.696 102.523 150.648 109.52C148.6 116.517 146.851 123.856 145.4 131.536C144.035 139.216 142.968 146.853 142.2 154.448C141.517 161.957 141.176 168.699 141.176 174.672C141.176 176.635 141.176 178.683 141.176 180.816C141.176 182.949 141.261 185.168 141.432 187.472C140.237 187.472 138.787 187.301 137.08 186.96C135.459 186.704 133.837 186.32 132.216 185.808C130.68 185.296 129.272 184.699 127.992 184.016C126.712 183.419 125.816 182.736 125.304 181.968C125.219 180.773 125.176 179.536 125.176 178.256C125.176 176.976 125.176 175.739 125.176 174.544C125.176 164.987 125.859 155.003 127.224 144.592C128.675 134.181 131.021 122.917 134.264 110.8C134.605 109.605 134.989 107.984 135.416 105.936C135.843 103.888 136.269 101.755 136.696 99.536C134.307 100.731 131.576 103.035 128.504 106.448C125.517 109.776 122.445 113.872 119.288 118.736C116.216 123.515 113.144 128.848 110.072 134.736C107.085 140.624 104.355 146.64 101.88 152.784C99.4907 158.843 97.4427 164.901 95.736 170.96C94.1147 176.933 93.1333 182.437 92.792 187.472ZM208.169 170.704C210.302 174.373 211.369 177.915 211.369 181.328C211.369 182.096 211.284 182.779 211.113 183.376C211.028 184.059 210.9 184.741 210.729 185.424C209.278 185.253 207.742 185.125 206.121 185.04C204.585 184.955 202.964 184.912 201.257 184.912C199.209 184.912 197.118 184.955 194.985 185.04C192.937 185.211 190.633 185.424 188.073 185.68C185.513 185.936 182.654 186.277 179.497 186.704C176.34 187.131 172.67 187.685 168.489 188.368C166.526 187.685 164.564 186.32 162.601 184.272C160.638 182.309 158.804 179.92 157.097 177.104C157.95 175.227 159.017 172.923 160.297 170.192C161.577 167.376 163.07 164.005 164.777 160.08C166.484 156.069 168.361 151.419 170.409 146.128C172.542 140.752 174.804 134.565 177.193 127.568C178.729 122.96 180.052 118.907 181.161 115.408C182.27 111.909 183.252 108.539 184.105 105.296C185.044 101.968 185.94 98.512 186.793 94.928C187.646 91.344 188.585 87.2053 189.609 82.512C193.022 83.1947 195.966 84.4747 198.441 86.352C201.001 88.144 203.433 90.7467 205.737 94.16C205.054 95.2693 204.158 97.0613 203.049 99.536C201.94 102.011 200.617 105.04 199.081 108.624C197.63 112.123 196.009 116.133 194.217 120.656C192.425 125.093 190.548 129.872 188.585 134.992C186.708 140.027 184.873 144.763 183.081 149.2C181.289 153.637 179.668 157.648 178.217 161.232C176.852 164.816 175.742 167.888 174.889 170.448C174.036 173.008 173.609 174.928 173.609 176.208C174.974 176.123 176.212 176.037 177.321 175.952C178.43 175.867 179.582 175.739 180.777 175.568C181.972 175.312 183.252 175.056 184.617 174.8C186.068 174.459 187.774 174.032 189.737 173.52C191.444 173.093 193.022 172.752 194.473 172.496C195.924 172.155 197.332 171.899 198.697 171.728C200.148 171.472 201.598 171.301 203.049 171.216C204.585 171.045 206.292 170.875 208.169 170.704Z" fill="#623A3A"/>
</g>
<defs>
<filter id="filter0_b_0_1" x="-4" y="-4" width="263" height="263" filterUnits="userSpaceOnUse" color-interpolation-filters="sRGB">
<feFlood flood-opacity="0" result="BackgroundImageFix"/>
<feGaussianBlur in="BackgroundImageFix" stdDeviation="2"/>
<feComposite in2="SourceAlpha" operator="in" result="effect1_backgroundBlur_0_1"/>
<feBlend mode="normal" in="SourceGraphic" in2="effect1_backgroundBlur_0_1" result="shape"/>
</filter>
<filter id="filter1_b_0_1" x="29.016" y="78.512" width="186.353" height="113.856" filterUnits="userSpaceOnUse" color-interpolation-filters="sRGB">
<feFlood flood-opacity="0" result="BackgroundImageFix"/>
<feGaussianBlur in="BackgroundImageFix" stdDeviation="2"/>
<feComposite in2="SourceAlpha" operator="in" result="effect1_backgroundBlur_0_1"/>
<feBlend mode="normal" in="SourceGraphic" in2="effect1_backgroundBlur_0_1" result="shape"/>
</filter>
</defs>
</svg>
